<svg xmlns="http://www.w3.org/2000/svg" width="900" height="620" viewBox="0 0 900 620" font-family="system-ui,'Segoe UI',Helvetica,Arial,sans-serif">
<defs>
<marker id="ag" viewBox="0 0 10 10" refX="8" refY="5" markerWidth="7" markerHeight="7" orient="auto-start-reverse"><path d="M1 1L9 5L1 9" fill="none" stroke="#9ca3af" stroke-width="1.6" stroke-linecap="round"/></marker>
</defs>
<rect width="900" height="620" fill="#ffffff"/>

<text x="450" y="20" text-anchor="middle" font-size="12" fill="#9ca3af">what you build · 你的应用</text>
<g fill="#ffffff" stroke="#d1d5db">
<rect x="126" y="28" width="200" height="40" rx="9"/>
<rect x="350" y="28" width="200" height="40" rx="9"/>
<rect x="574" y="28" width="200" height="40" rx="9"/>
</g>
<g font-size="13.5" fill="#374151" text-anchor="middle">
<text x="226" y="53">Robotics environments</text>
<text x="450" y="53">ML &amp; RL pipelines</text>
<text x="674" y="53">Data generation</text>
</g>
<g stroke="#9ca3af" stroke-width="1.4">
<line x1="226" y1="68" x2="226" y2="94" marker-end="url(#ag)"/>
<line x1="450" y1="68" x2="450" y2="94" marker-end="url(#ag)"/>
<line x1="674" y1="68" x2="674" y2="94" marker-end="url(#ag)"/>
</g>

<rect x="100" y="100" width="700" height="420" rx="16" fill="#fbfaf8" stroke="#d8d6d0" stroke-width="1.2"/>
<text x="450" y="132" text-anchor="middle" font-size="20" font-weight="600" fill="#111827">Latent Physics World</text>
<text x="450" y="152" text-anchor="middle" font-size="12" fill="#9ca3af">a high-precision, high-speed physics simulator for physical AI</text>

<rect x="128" y="170" width="644" height="100" rx="10" fill="#dbeafe" stroke="#93c5fd"/>
<text x="148" y="198" font-size="16" font-weight="600" fill="#1e3a8a">Simulation interface</text>
<text x="752" y="198" text-anchor="end" font-size="12.5" fill="#1e3a8a" opacity="0.75">仿真接口</text>
<text x="148" y="224" font-size="12.5" fill="#1e40af">MJCF world loading · vectorized batched API · zero-copy PyTorch tensors</text>
<text x="148" y="246" font-size="12.5" fill="#1e40af">world snapshot / branch / restore · auto-verified benchmark tasks</text>

<rect x="128" y="284" width="644" height="100" rx="10" fill="#dcfce7" stroke="#86efac"/>
<text x="148" y="312" font-size="16" font-weight="600" fill="#14532d">Worlds &amp; perception</text>
<text x="752" y="312" text-anchor="end" font-size="12.5" fill="#14532d" opacity="0.75">世界与感知</text>
<text x="148" y="338" font-size="12.5" fill="#166534">procedural indoor scenes · asset pipeline: mesh → convex parts / GPU SDF</text>
<text x="148" y="360" font-size="12.5" fill="#166534">batched LiDAR · depth · segmentation (native GPU renderer)</text>

<rect x="128" y="398" width="644" height="100" rx="10" fill="#fef3c7" stroke="#fcd34d"/>
<text x="148" y="426" font-size="16" font-weight="600" fill="#92400e">Physics core</text>
<text x="752" y="426" text-anchor="end" font-size="12.5" fill="#92400e" opacity="0.75">物理内核</text>
<text x="148" y="452" font-size="12.5" fill="#a16207">contact-accurate rigid dynamics · 8192+ parallel worlds · CUDA-graph stepping</text>
<text x="148" y="474" font-size="12.5" fill="#a16207">physics sentinels (fidelity guards) · built on mujoco_warp (Apache-2.0)</text>

<line x1="450" y1="520" x2="450" y2="542" stroke="#9ca3af" stroke-width="1.4" marker-end="url(#ag)"/>
<rect x="100" y="548" width="700" height="52" rx="10" fill="#f3f4f6" stroke="#e5e7eb"/>
<text x="450" y="579" text-anchor="middle" font-size="13.5" fill="#4b5563">your compute — one consumer GPU today · a multi-GPU fleet tomorrow · 单卡起步,舰队扩展</text>
</svg>
